<svg xmlns="http://www.w3.org/2000/svg" viewBox="0 0 930 780" width="930" height="780" font-family="monospace" font-size="14">
  <!-- Window chrome -->
  <rect x="0" y="0" width="930" height="780" rx="8" fill="#1a1a1a" stroke="#888" stroke-width="2"/>
  <rect x="0" y="0" width="930" height="30" rx="8" fill="#3a3a3a"/>
  <rect x="0" y="15" width="930" height="15" fill="#3a3a3a"/>
  <circle cx="18" cy="15" r="6" fill="#ff5f57"/>
  <circle cx="38" cy="15" r="6" fill="#febc2e"/>
  <circle cx="58" cy="15" r="6" fill="#28c840"/>
  <text x="465" y="19" fill="#ccc" text-anchor="middle" font-size="12">php-test-project — ddev-xdebug-tui ‹ ddev xdebug-tui — 111×34</text>

  <!-- Status bar -->
  <rect x="10" y="40" width="910" height="28" fill="#0000ee"/>
  <text x="20" y="59" fill="#fff" font-weight="bold">ddev-xdebug-tui | PHP | index.php | line 10</text>

  <!-- Top row: Stack + Source -->
  <rect x="10" y="80" width="280" height="320" fill="none" stroke="#666" stroke-width="1" stroke-dasharray="4,2"/>
  <text x="150" y="95" fill="#999" text-anchor="middle" font-size="13">Stack</text>

  <rect x="300" y="80" width="620" height="320" fill="none" stroke="#666" stroke-width="1" stroke-dasharray="4,2"/>
  <text x="610" y="95" fill="#999" text-anchor="middle" font-size="13">Source</text>

  <!-- Line numbers -->
  <g fill="#666" font-size="13">
    <text x="340" y="120">4</text>
    <text x="340" y="140">5</text>
    <text x="340" y="160">6</text>
    <text x="340" y="180">7</text>
    <text x="340" y="200">8</text>
    <text x="340" y="220">9</text>
    <text x="332" y="260">11</text>
    <text x="332" y="280">12</text>
    <text x="332" y="300">13</text>
    <text x="332" y="320">14</text>
  </g>
  <!-- Highlighted line 10 -->
  <text x="332" y="240" fill="#ffff00" font-size="13">10</text>

  <!-- Separator line -->
  <line x1="358" y1="105" x2="358" y2="395" stroke="#444" stroke-width="1"/>

  <!-- Code text -->
  <g fill="#ccc" font-size="13">
    <text x="370" y="120"> * Entry point for ddev-xdebug-tui manual testing.</text>
    <text x="370" y="140"> *</text>
    <text x="370" y="160"> * This file provides a simple call chain across multiple files</text>
    <text x="370" y="180"> * so the debugger has a meaningful stack to display.</text>
    <text x="370" y="200"> */</text>
    <text x="370" y="260">require_once __DIR__ . '/lib/greeter.php';</text>
    <text x="370" y="300">$name  = $_GET['name'] ?? 'world';</text>
    <text x="370" y="320">$value = 42;</text>
  </g>
  <!-- Highlighted line 10 code -->
  <text x="370" y="240" fill="#ffff00" font-size="13">require_once __DIR__ . '/lib/math.php';</text>

  <!-- Bottom row: Variables + Breakpoints -->
  <rect x="10" y="420" width="450" height="300" fill="none" stroke="#666" stroke-width="1" stroke-dasharray="4,2"/>
  <text x="235" y="435" fill="#999" text-anchor="middle" font-size="13">Variables</text>

  <rect x="470" y="420" width="450" height="300" fill="none" stroke="#666" stroke-width="1" stroke-dasharray="4,2"/>
  <text x="695" y="435" fill="#999" text-anchor="middle" font-size="13">Breakpoints</text>

  <!-- Command bar -->
  <rect x="10" y="735" width="910" height="28" fill="#2a2020" rx="2"/>
  <text x="20" y="754" fill="#aaa" font-size="13">Command:</text>
  <rect x="110" y="740" width="10" height="16" fill="#0f0"/>
</svg>
